STARTFONT 2.1
FONT -Bitstream-Terminal-Bold-R-Narrow--18-140-100-100-C-70-DEC-DECtech
SIZE 14 100 100
FONTBOUNDINGBOX 7 20 0 -5

STARTPROPERTIES 25
CHARSET_REGISTRY "DEC"
CHARSET_ENCODING "DECtech"
CAP_HEIGHT 11
X_HEIGHT 9
AVERAGE_WIDTH 70
FONTNAME_REGISTRY ""
FAMILY_NAME "Terminal"
FOUNDRY "Bitstream"
WEIGHT_NAME "Bold"
SETWIDTH_NAME "Narrow"
SLANT "R"
ADD_STYLE_NAME ""
PIXEL_SIZE 18
POINT_SIZE 140
RESOLUTION_X 100
RESOLUTION_Y 100
SPACING "C"
CHARSET_COLLECTIONS "DEC-DECtech"
FULL_NAME "Terminal Bold Narrow"
COPYRIGHT "Copyright (c) 1988 Bitstream, Inc., Copyright 1990 Digital Equipment Corp. All rights reserved."
WEIGHT 10
QUAD_WIDTH 7
DEFAULT_CHAR 159
FONT_DESCENT 5
FONT_ASCENT 15
ENDPROPERTIES

CHARS 181

STARTCHAR space
ENCODING 32
SWIDTH 360 0
DWIDTH 7 0
BBX 1 1 0 0
BITMAP
00
ENDCHAR

STARTCHAR exclam
ENCODING 33
SWIDTH 360 0
DWIDTH 7 0
BBX 4 11 2 0
BITMAP
60
60
60
60
60
60
60
00
60
F0
60
ENDCHAR

STARTCHAR quotedbl
ENCODING 34
SWIDTH 360 0
DWIDTH 7 0
BBX 5 5 1 8
BITMAP
D8
D8
D8
D8
D8
ENDCHAR

STARTCHAR numbersign
ENCODING 35
SWIDTH 360 0
DWIDTH 7 0
BBX 6 12 1 -1
BITMAP
48
48
48
FC
FC
48
48
FC
FC
48
48
48
ENDCHAR

STARTCHAR dollar
ENCODING 36
SWIDTH 360 0
DWIDTH 7 0
BBX 6 15 1 -3
BITMAP
30
30
78
FC
CC
C0
F0
7C
0C
CC
FC
F8
30
30
30
ENDCHAR

STARTCHAR percent
ENCODING 37
SWIDTH 360 0
DWIDTH 7 0
BBX 7 11 0 0
BITMAP
70
D8
D8
70
06
3C
E0
1C
36
36
1C
ENDCHAR

STARTCHAR ampersand
ENCODING 38
SWIDTH 360 0
DWIDTH 7 0
BBX 6 11 1 0
BITMAP
38
78
60
60
60
70
F4
DC
D8
FC
6C
ENDCHAR

STARTCHAR quoteright
ENCODING 39
SWIDTH 360 0
DWIDTH 7 0
BBX 4 5 2 8
BITMAP
30
20
60
40
C0
ENDCHAR

STARTCHAR parenleft
ENCODING 40
SWIDTH 360 0
DWIDTH 7 0
BBX 4 14 2 -2
BITMAP
30
30
60
60
C0
C0
C0
C0
C0
C0
60
60
30
30
ENDCHAR

STARTCHAR parenright
ENCODING 41
SWIDTH 360 0
DWIDTH 7 0
BBX 4 14 2 -2
BITMAP
C0
C0
60
60
30
30
30
30
30
30
60
60
C0
C0
ENDCHAR

STARTCHAR asterisk
ENCODING 42
SWIDTH 360 0
DWIDTH 7 0
BBX 5 7 1 2
BITMAP
20
20
A8
F8
70
50
D8
ENDCHAR

STARTCHAR plus
ENCODING 43
SWIDTH 360 0
DWIDTH 7 0
BBX 6 8 1 1
BITMAP
30
30
30
FC
FC
30
30
30
ENDCHAR

STARTCHAR comma
ENCODING 44
SWIDTH 360 0
DWIDTH 7 0
BBX 3 5 2 -2
BITMAP
60
60
C0
C0
80
ENDCHAR

STARTCHAR minus
ENCODING 45
SWIDTH 360 0
DWIDTH 7 0
BBX 5 2 1 4
BITMAP
F8
F8
ENDCHAR

STARTCHAR period
ENCODING 46
SWIDTH 360 0
DWIDTH 7 0
BBX 4 3 2 0
BITMAP
60
F0
60
ENDCHAR

STARTCHAR slash
ENCODING 47
SWIDTH 360 0
DWIDTH 7 0
BBX 5 13 1 -1
BITMAP
18
18
18
30
30
30
60
60
60
60
C0
C0
C0
ENDCHAR

STARTCHAR zero
ENCODING 48
SWIDTH 360 0
DWIDTH 7 0
BBX 6 11 1 0
BITMAP
30
78
78
CC
CC
CC
CC
CC
78
78
30
ENDCHAR

STARTCHAR one
ENCODING 49
SWIDTH 360 0
DWIDTH 7 0
BBX 6 11 1 0
BITMAP
30
70
F0
B0
30
30
30
30
30
FC
FC
ENDCHAR

STARTCHAR two
ENCODING 50
SWIDTH 360 0
DWIDTH 7 0
BBX 6 11 1 0
BITMAP
78
FC
CC
0C
0C
18
18
30
60
FC
FC
ENDCHAR

STARTCHAR three
ENCODING 51
SWIDTH 360 0
DWIDTH 7 0
BBX 6 11 1 0
BITMAP
78
FC
CC
0C
38
3C
0C
0C
CC
FC
78
ENDCHAR

STARTCHAR four
ENCODING 52
SWIDTH 360 0
DWIDTH 7 0
BBX 6 11 1 0
BITMAP
18
38
38
78
58
D8
FC
FC
18
18
18
ENDCHAR

STARTCHAR five
ENCODING 53
SWIDTH 360 0
DWIDTH 7 0
BBX 6 11 1 0
BITMAP
FC
FC
C0
C0
F8
FC
0C
0C
CC
FC
78
ENDCHAR

STARTCHAR six
ENCODING 54
SWIDTH 360 0
DWIDTH 7 0
BBX 6 11 1 0
BITMAP
1C
3C
70
60
F8
FC
CC
CC
CC
FC
78
ENDCHAR

STARTCHAR seven
ENCODING 55
SWIDTH 360 0
DWIDTH 7 0
BBX 6 11 1 0
BITMAP
FC
FC
8C
0C
18
18
18
30
30
30
30
ENDCHAR

STARTCHAR eight
ENCODING 56
SWIDTH 360 0
DWIDTH 7 0
BBX 6 11 1 0
BITMAP
78
FC
CC
CC
78
FC
CC
CC
CC
FC
78
ENDCHAR

STARTCHAR nine
ENCODING 57
SWIDTH 360 0
DWIDTH 7 0
BBX 6 11 1 0
BITMAP
78
FC
CC
CC
CC
FC
7C
18
38
F0
E0
ENDCHAR

STARTCHAR colon
ENCODING 58
SWIDTH 360 0
DWIDTH 7 0
BBX 4 8 2 0
BITMAP
60
F0
60
00
00
60
F0
60
ENDCHAR

STARTCHAR semicolon
ENCODING 59
SWIDTH 360 0
DWIDTH 7 0
BBX 4 10 2 -2
BITMAP
60
F0
60
00
00
60
60
C0
C0
80
ENDCHAR

STARTCHAR less
ENCODING 60
SWIDTH 360 0
DWIDTH 7 0
BBX 6 9 1 1
BITMAP
0C
1C
38
70
E0
70
38
1C
0C
ENDCHAR

STARTCHAR equal
ENCODING 61
SWIDTH 360 0
DWIDTH 7 0
BBX 6 6 1 2
BITMAP
FC
FC
00
00
FC
FC
ENDCHAR

STARTCHAR greater
ENCODING 62
SWIDTH 360 0
DWIDTH 7 0
BBX 6 9 1 1
BITMAP
C0
E0
70
38
1C
38
70
E0
C0
ENDCHAR

STARTCHAR question
ENCODING 63
SWIDTH 360 0
DWIDTH 7 0
BBX 6 11 1 0
BITMAP
78
FC
8C
1C
38
30
30
00
30
78
30
ENDCHAR

STARTCHAR at
ENCODING 64
SWIDTH 360 0
DWIDTH 7 0
BBX 6 14 1 -2
BITMAP
78
FC
C4
C4
DC
DC
D4
D4
DC
DC
C0
C0
FC
78
ENDCHAR

STARTCHAR A
ENCODING 65
SWIDTH 360 0
DWIDTH 7 0
BBX 6 11 1 0
BITMAP
30
78
78
CC
CC
CC
FC
FC
CC
CC
CC
ENDCHAR

STARTCHAR B
ENCODING 66
SWIDTH 360 0
DWIDTH 7 0
BBX 6 11 1 0
BITMAP
F8
FC
CC
CC
FC
F8
CC
CC
CC
FC
F8
ENDCHAR

STARTCHAR C
ENCODING 67
SWIDTH 360 0
DWIDTH 7 0
BBX 6 11 1 0
BITMAP
74
FC
CC
CC
C0
C0
C0
C0
CC
FC
78
ENDCHAR

STARTCHAR D
ENCODING 68
SWIDTH 360 0
DWIDTH 7 0
BBX 6 11 1 0
BITMAP
F8
FC
CC
CC
CC
CC
CC
CC
CC
FC
F8
ENDCHAR

STARTCHAR E
ENCODING 69
SWIDTH 360 0
DWIDTH 7 0
BBX 6 11 1 0
BITMAP
FC
FC
C0
C0
F8
F8
C0
C0
C0
FC
FC
ENDCHAR

STARTCHAR F
ENCODING 70
SWIDTH 360 0
DWIDTH 7 0
BBX 6 11 1 0
BITMAP
FC
FC
C0
C0
F8
F8
C0
C0
C0
C0
C0
ENDCHAR

STARTCHAR G
ENCODING 71
SWIDTH 360 0
DWIDTH 7 0
BBX 6 11 1 0
BITMAP
74
FC
CC
CC
C0
DC
DC
CC
CC
FC
78
ENDCHAR

STARTCHAR H
ENCODING 72
SWIDTH 360 0
DWIDTH 7 0
BBX 6 11 1 0
BITMAP
CC
CC
CC
CC
FC
FC
CC
CC
CC
CC
CC
ENDCHAR

STARTCHAR I
ENCODING 73
SWIDTH 360 0
DWIDTH 7 0
BBX 6 11 1 0
BITMAP
FC
FC
30
30
30
30
30
30
30
FC
FC
ENDCHAR

STARTCHAR J
ENCODING 74
SWIDTH 360 0
DWIDTH 7 0
BBX 6 11 1 0
BITMAP
7C
7C
18
18
18
18
18
D8
D8
F8
70
ENDCHAR

STARTCHAR K
ENCODING 75
SWIDTH 360 0
DWIDTH 7 0
BBX 6 11 1 0
BITMAP
CC
CC
D8
D8
F0
F0
D8
D8
D8
CC
CC
ENDCHAR

STARTCHAR L
ENCODING 76
SWIDTH 360 0
DWIDTH 7 0
BBX 6 11 1 0
BITMAP
F0
F0
60
60
60
60
60
60
64
FC
FC
ENDCHAR

STARTCHAR M
ENCODING 77
SWIDTH 360 0
DWIDTH 7 0
BBX 6 11 1 0
BITMAP
84
CC
CC
FC
FC
FC
CC
CC
CC
CC
CC
ENDCHAR

STARTCHAR N
ENCODING 78
SWIDTH 360 0
DWIDTH 7 0
BBX 6 11 1 0
BITMAP
CC
CC
CC
EC
EC
FC
DC
DC
CC
CC
CC
ENDCHAR

STARTCHAR O
ENCODING 79
SWIDTH 360 0
DWIDTH 7 0
BBX 6 11 1 0
BITMAP
78
FC
CC
CC
CC
CC
CC
CC
CC
FC
78
ENDCHAR

STARTCHAR P
ENCODING 80
SWIDTH 360 0
DWIDTH 7 0
BBX 6 11 1 0
BITMAP
F8
FC
CC
CC
CC
FC
F8
C0
C0
C0
C0
ENDCHAR

STARTCHAR Q
ENCODING 81
SWIDTH 360 0
DWIDTH 7 0
BBX 6 14 1 -3
BITMAP
78
FC
CC
CC
CC
CC
CC
CC
CC
FC
78
20
7C
7C
ENDCHAR

STARTCHAR R
ENCODING 82
SWIDTH 360 0
DWIDTH 7 0
BBX 6 11 1 0
BITMAP
F8
FC
CC
CC
CC
F8
F8
D8
DC
CC
CC
ENDCHAR

STARTCHAR S
ENCODING 83
SWIDTH 360 0
DWIDTH 7 0
BBX 6 11 1 0
BITMAP
7C
FC
CC
C0
E0
78
1C
0C
CC
FC
F8
ENDCHAR

STARTCHAR T
ENCODING 84
SWIDTH 360 0
DWIDTH 7 0
BBX 6 11 1 0
BITMAP
FC
FC
30
30
30
30
30
30
30
30
30
ENDCHAR

STARTCHAR U
ENCODING 85
SWIDTH 360 0
DWIDTH 7 0
BBX 6 11 1 0
BITMAP
CC
CC
CC
CC
CC
CC
CC
CC
CC
FC
78
ENDCHAR

STARTCHAR V
ENCODING 86
SWIDTH 360 0
DWIDTH 7 0
BBX 6 11 1 0
BITMAP
CC
CC
CC
CC
CC
CC
CC
78
78
30
30
ENDCHAR

STARTCHAR W
ENCODING 87
SWIDTH 360 0
DWIDTH 7 0
BBX 6 11 1 0
BITMAP
CC
CC
CC
CC
CC
CC
FC
FC
FC
CC
84
ENDCHAR

STARTCHAR X
ENCODING 88
SWIDTH 360 0
DWIDTH 7 0
BBX 6 11 1 0
BITMAP
CC
CC
CC
CC
78
30
78
78
CC
CC
CC
ENDCHAR

STARTCHAR Y
ENCODING 89
SWIDTH 360 0
DWIDTH 7 0
BBX 6 11 1 0
BITMAP
CC
CC
CC
CC
78
78
30
30
30
30
30
ENDCHAR

STARTCHAR Z
ENCODING 90
SWIDTH 360 0
DWIDTH 7 0
BBX 6 11 1 0
BITMAP
FC
FC
8C
1C
18
38
30
70
64
FC
FC
ENDCHAR

STARTCHAR bracketleft
ENCODING 91
SWIDTH 360 0
DWIDTH 7 0
BBX 3 14 2 -2
BITMAP
E0
E0
C0
C0
C0
C0
C0
C0
C0
C0
C0
C0
E0
E0
ENDCHAR

STARTCHAR backslash
ENCODING 92
SWIDTH 360 0
DWIDTH 7 0
BBX 5 13 1 -1
BITMAP
C0
C0
C0
60
60
60
30
30
30
30
18
18
18
ENDCHAR

STARTCHAR bracketright
ENCODING 93
SWIDTH 360 0
DWIDTH 7 0
BBX 3 14 2 -2
BITMAP
E0
E0
60
60
60
60
60
60
60
60
60
60
E0
E0
ENDCHAR

STARTCHAR asciicircum
ENCODING 94
SWIDTH 360 0
DWIDTH 7 0
BBX 6 4 1 5
BITMAP
30
78
CC
84
ENDCHAR

STARTCHAR ldblank
ENCODING 95
SWIDTH 360 0
DWIDTH 7 0
BBX 1 1 0 0
BITMAP
00
ENDCHAR

STARTCHAR diamond
ENCODING 96
SWIDTH 360 0
DWIDTH 7 0
BBX 6 10 1 0
BITMAP
30
30
78
78
FC
FC
78
78
30
30
ENDCHAR

STARTCHAR checkerboard
ENCODING 97
SWIDTH 360 0
DWIDTH 7 0
BBX 7 20 0 -5
BITMAP
C8
36
C8
36
C8
36
C8
36
C8
36
C8
36
C8
36
C8
36
C8
36
C8
36
ENDCHAR

STARTCHAR HT
ENCODING 98
SWIDTH 360 0
DWIDTH 7 0
BBX 6 13 1 -1
BITMAP
D8
D8
F8
F8
D8
D8
00
3C
18
18
18
18
18
ENDCHAR

STARTCHAR FF
ENCODING 99
SWIDTH 360 0
DWIDTH 7 0
BBX 6 13 1 -1
BITMAP
F0
C0
E0
C0
C0
C0
00
3C
30
38
30
30
30
ENDCHAR

STARTCHAR CR
ENCODING 100
SWIDTH 360 0
DWIDTH 7 0
BBX 6 13 1 -1
BITMAP
60
D0
C0
C0
D0
60
00
78
6C
78
68
6C
6C
ENDCHAR

STARTCHAR LF
ENCODING 101
SWIDTH 360 0
DWIDTH 7 0
BBX 6 13 1 -1
BITMAP
C0
C0
C0
C0
C0
F0
00
3C
30
38
30
30
30
ENDCHAR

STARTCHAR degree
ENCODING 102
SWIDTH 360 0
DWIDTH 7 0
BBX 5 5 1 7
BITMAP
70
F8
D8
F8
70
ENDCHAR

STARTCHAR plusminus
ENCODING 103
SWIDTH 360 0
DWIDTH 7 0
BBX 6 11 1 0
BITMAP
30
30
30
FC
FC
30
30
30
00
FC
FC
ENDCHAR

STARTCHAR NL
ENCODING 104
SWIDTH 360 0
DWIDTH 7 0
BBX 6 13 1 -1
BITMAP
98
D8
F8
F8
D8
C8
00
30
30
30
30
30
3C
ENDCHAR

STARTCHAR VT
ENCODING 105
SWIDTH 360 0
DWIDTH 7 0
BBX 6 13 1 -1
BITMAP
D8
D8
D8
D8
70
20
00
3C
18
18
18
18
18
ENDCHAR

STARTCHAR ldcornsqlr
ENCODING 106
SWIDTH 360 0
DWIDTH 7 0
BBX 5 11 0 4
BITMAP
18
18
18
18
18
18
18
18
18
F8
F8
ENDCHAR

STARTCHAR ldcornsqur
ENCODING 107
SWIDTH 360 0
DWIDTH 7 0
BBX 5 11 0 -5
BITMAP
F8
F8
18
18
18
18
18
18
18
18
18
ENDCHAR

STARTCHAR ldcornsqul
ENCODING 108
SWIDTH 360 0
DWIDTH 7 0
BBX 4 11 3 -5
BITMAP
F0
F0
C0
C0
C0
C0
C0
C0
C0
C0
C0
ENDCHAR

STARTCHAR ldcornsqll
ENCODING 109
SWIDTH 360 0
DWIDTH 7 0
BBX 4 11 3 4
BITMAP
C0
C0
C0
C0
C0
C0
C0
C0
C0
F0
F0
ENDCHAR

STARTCHAR ldcross
ENCODING 110
SWIDTH 360 0
DWIDTH 7 0
BBX 7 20 0 -5
BITMAP
18
18
18
18
18
18
18
18
18
FE
FE
18
18
18
18
18
18
18
18
18
ENDCHAR

STARTCHAR ldscan1
ENCODING 111
SWIDTH 360 0
DWIDTH 7 0
BBX 7 2 0 11
BITMAP
FE
FE
ENDCHAR

STARTCHAR ldscan3
ENCODING 112
SWIDTH 360 0
DWIDTH 7 0
BBX 7 2 0 7
BITMAP
FE
FE
ENDCHAR

STARTCHAR ldhorizontal
ENCODING 113
SWIDTH 360 0
DWIDTH 7 0
BBX 7 2 0 4
BITMAP
FE
FE
ENDCHAR

STARTCHAR ldscan7
ENCODING 114
SWIDTH 360 0
DWIDTH 7 0
BBX 7 2 0 0
BITMAP
FE
FE
ENDCHAR

STARTCHAR ldscan9
ENCODING 115
SWIDTH 360 0
DWIDTH 7 0
BBX 7 2 0 -4
BITMAP
FE
FE
ENDCHAR

STARTCHAR ldteelft
ENCODING 116
SWIDTH 360 0
DWIDTH 7 0
BBX 4 20 3 -5
BITMAP
C0
C0
C0
C0
C0
C0
C0
C0
C0
F0
F0
C0
C0
C0
C0
C0
C0
C0
C0
C0
ENDCHAR

STARTCHAR ldteert
ENCODING 117
SWIDTH 360 0
DWIDTH 7 0
BBX 5 20 0 -5
BITMAP
18
18
18
18
18
18
18
18
18
F8
F8
18
18
18
18
18
18
18
18
18
ENDCHAR

STARTCHAR ldteebt
ENCODING 118
SWIDTH 360 0
DWIDTH 7 0
BBX 7 11 0 4
BITMAP
18
18
18
18
18
18
18
18
18
FE
FE
ENDCHAR

STARTCHAR ldteetp
ENCODING 119
SWIDTH 360 0
DWIDTH 7 0
BBX 7 11 0 -5
BITMAP
FE
FE
18
18
18
18
18
18
18
18
18
ENDCHAR

STARTCHAR ldvertical
ENCODING 120
SWIDTH 360 0
DWIDTH 7 0
BBX 2 20 3 -5
BITMAP
C0
C0
C0
C0
C0
C0
C0
C0
C0
C0
C0
C0
C0
C0
C0
C0
C0
C0
C0
C0
ENDCHAR

STARTCHAR lessequal
ENCODING 121
SWIDTH 360 0
DWIDTH 7 0
BBX 6 10 1 0
BITMAP
0C
3C
F0
C0
F0
3C
0C
00
FC
FC
ENDCHAR

STARTCHAR greaterequal
ENCODING 122
SWIDTH 360 0
DWIDTH 7 0
BBX 6 10 1 0
BITMAP
C0
F0
3C
0C
3C
F0
C0
00
FC
FC
ENDCHAR

STARTCHAR pi
ENCODING 123
SWIDTH 360 0
DWIDTH 7 0
BBX 6 9 1 0
BITMAP
FC
FC
6C
6C
6C
D8
D8
D8
D8
ENDCHAR

STARTCHAR notequal
ENCODING 124
SWIDTH 360 0
DWIDTH 7 0
BBX 6 10 1 0
BITMAP
08
08
FC
FC
30
30
FC
FC
40
40
ENDCHAR

STARTCHAR sterling
ENCODING 125
SWIDTH 360 0
DWIDTH 7 0
BBX 6 11 1 0
BITMAP
38
7C
6C
60
F8
F8
60
60
60
FC
DC
ENDCHAR

STARTCHAR periodcentered
ENCODING 126
SWIDTH 360 0
DWIDTH 7 0
BBX 4 3 2 3
BITMAP
60
F0
60
ENDCHAR

STARTCHAR Error
ENCODING 159
SWIDTH 360 0
DWIDTH 7 0
BBX 7 17 0 -3
BITMAP
7C
FE
EE
EE
EE
E0
F0
70
78
38
38
00
00
38
7C
7C
38
ENDCHAR

STARTCHAR ldradicalbt
ENCODING 161
SWIDTH 360 0
DWIDTH 7 0
BBX 5 12 0 3
BITMAP
18
18
18
18
18
18
18
D8
D8
78
38
18
ENDCHAR

STARTCHAR ldradicaltp
ENCODING 162
SWIDTH 360 0
DWIDTH 7 0
BBX 4 11 3 -5
BITMAP
F0
F0
C0
C0
C0
C0
C0
C0
C0
C0
C0
ENDCHAR

STARTCHAR ldhorizontal
ENCODING 163
SWIDTH 360 0
DWIDTH 7 0
BBX 7 2 0 4
BITMAP
FE
FE
ENDCHAR

STARTCHAR ldintegraltp
ENCODING 164
SWIDTH 360 0
DWIDTH 7 0
BBX 4 18 3 -5
BITMAP
30
70
C0
C0
C0
C0
C0
C0
C0
C0
C0
C0
C0
C0
C0
C0
C0
C0
ENDCHAR

STARTCHAR ldintegralbt
ENCODING 165
SWIDTH 360 0
DWIDTH 7 0
BBX 4 18 1 -3
BITMAP
30
30
30
30
30
30
30
30
30
30
30
30
30
30
30
30
E0
C0
ENDCHAR

STARTCHAR ldvertical
ENCODING 166
SWIDTH 360 0
DWIDTH 7 0
BBX 2 20 3 -5
BITMAP
C0
C0
C0
C0
C0
C0
C0
C0
C0
C0
C0
C0
C0
C0
C0
C0
C0
C0
C0
C0
ENDCHAR

STARTCHAR ldbracketlfttp
ENCODING 167
SWIDTH 360 0
DWIDTH 7 0
BBX 4 18 3 -5
BITMAP
F0
F0
C0
C0
C0
C0
C0
C0
C0
C0
C0
C0
C0
C0
C0
C0
C0
C0
ENDCHAR

STARTCHAR ldbracketlftbt
ENCODING 168
SWIDTH 360 0
DWIDTH 7 0
BBX 4 18 3 -3
BITMAP
C0
C0
C0
C0
C0
C0
C0
C0
C0
C0
C0
C0
C0
C0
C0
C0
F0
F0
ENDCHAR

STARTCHAR ldbracketrttp
ENCODING 169
SWIDTH 360 0
DWIDTH 7 0
BBX 4 17 1 -5
BITMAP
F0
F0
30
30
30
30
30
30
30
30
30
30
30
30
30
30
30
ENDCHAR

STARTCHAR ldbracketrtbt
ENCODING 170
SWIDTH 360 0
DWIDTH 7 0
BBX 4 18 1 -3
BITMAP
30
30
30
30
30
30
30
30
30
30
30
30
30
30
30
30
F0
F0
ENDCHAR

STARTCHAR ldbracelfttp
ENCODING 171
SWIDTH 360 0
DWIDTH 7 0
BBX 4 18 3 -5
BITMAP
30
70
C0
C0
C0
C0
C0
C0
C0
C0
C0
C0
C0
C0
C0
C0
C0
C0
ENDCHAR

STARTCHAR ldbracelftbt
ENCODING 172
SWIDTH 360 0
DWIDTH 7 0
BBX 4 19 3 -4
BITMAP
C0
C0
C0
C0
C0
C0
C0
C0
C0
C0
C0
C0
C0
C0
C0
C0
C0
70
30
ENDCHAR

STARTCHAR ldbracerttp
ENCODING 173
SWIDTH 360 0
DWIDTH 7 0
BBX 4 18 1 -5
BITMAP
C0
E0
30
30
30
30
30
30
30
30
30
30
30
30
30
30
30
30
ENDCHAR

STARTCHAR ldbracertbt
ENCODING 174
SWIDTH 360 0
DWIDTH 7 0
BBX 4 18 1 -3
BITMAP
30
30
30
30
30
30
30
30
30
30
30
30
30
30
30
30
E0
C0
ENDCHAR

STARTCHAR ldbracelftmid
ENCODING 175
SWIDTH 360 0
DWIDTH 7 0
BBX 4 20 1 -5
BITMAP
30
30
30
30
30
30
30
30
30
60
E0
60
30
30
30
30
30
30
30
30
ENDCHAR

STARTCHAR ldbracertmid
ENCODING 176
SWIDTH 360 0
DWIDTH 7 0
BBX 4 20 3 -5
BITMAP
C0
C0
C0
C0
C0
C0
C0
C0
C0
60
70
60
C0
C0
C0
C0
C0
C0
C0
C0
ENDCHAR

STARTCHAR ldsigmalfttp
ENCODING 177
SWIDTH 360 0
DWIDTH 7 0
BBX 5 11 2 -5
BITMAP
F8
F8
C0
40
60
20
20
30
10
18
18
ENDCHAR

STARTCHAR ldsigmalftbt
ENCODING 178
SWIDTH 360 0
DWIDTH 7 0
BBX 5 11 2 4
BITMAP
08
18
10
30
20
20
60
40
C0
F8
F8
ENDCHAR

STARTCHAR ldbackslash
ENCODING 179
SWIDTH 360 0
DWIDTH 7 0
BBX 7 20 0 -5
BITMAP
80
80
C0
C0
40
60
60
20
30
30
10
18
18
08
0C
0C
04
06
06
02
ENDCHAR

STARTCHAR ldslash
ENCODING 180
SWIDTH 360 0
DWIDTH 7 0
BBX 7 20 0 -5
BITMAP
02
02
06
06
04
0C
0C
08
18
18
10
30
30
20
60
60
40
C0
C0
80
ENDCHAR

STARTCHAR ldsigmarttp
ENCODING 181
SWIDTH 360 0
DWIDTH 7 0
BBX 7 4 0 2
BITMAP
FE
FE
06
06
ENDCHAR

STARTCHAR ldsigmartbt
ENCODING 182
SWIDTH 360 0
DWIDTH 7 0
BBX 7 4 0 4
BITMAP
06
06
FE
FE
ENDCHAR

STARTCHAR ldsigmamid
ENCODING 183
SWIDTH 360 0
DWIDTH 7 0
BBX 5 20 0 -5
BITMAP
80
80
C0
C0
40
60
60
20
30
30
18
30
30
20
60
60
40
C0
C0
80
ENDCHAR

STARTCHAR lessequal
ENCODING 188
SWIDTH 360 0
DWIDTH 7 0
BBX 6 10 1 0
BITMAP
0C
3C
F0
C0
F0
3C
0C
00
FC
FC
ENDCHAR

STARTCHAR notequal
ENCODING 189
SWIDTH 360 0
DWIDTH 7 0
BBX 6 10 1 0
BITMAP
08
08
FC
FC
30
30
FC
FC
40
40
ENDCHAR

STARTCHAR greaterequal
ENCODING 190
SWIDTH 360 0
DWIDTH 7 0
BBX 6 10 1 0
BITMAP
C0
F0
3C
0C
3C
F0
C0
00
FC
FC
ENDCHAR

STARTCHAR integral
ENCODING 191
SWIDTH 360 0
DWIDTH 7 0
BBX 6 18 1 -4
BITMAP
08
1C
34
30
30
30
30
30
30
30
30
30
30
30
30
B0
E0
40
ENDCHAR

STARTCHAR therefore
ENCODING 192
SWIDTH 360 0
DWIDTH 7 0
BBX 7 9 0 0
BITMAP
10
38
38
10
00
44
EE
EE
44
ENDCHAR

STARTCHAR proportional
ENCODING 193
SWIDTH 360 0
DWIDTH 7 0
BBX 6 8 1 1
BITMAP
6C
FC
F8
90
90
F8
FC
6C
ENDCHAR

STARTCHAR infinity
ENCODING 194
SWIDTH 360 0
DWIDTH 7 0
BBX 7 8 0 1
BITMAP
6C
EE
FE
92
92
FE
EE
6C
ENDCHAR

STARTCHAR divide
ENCODING 195
SWIDTH 360 0
DWIDTH 7 0
BBX 6 10 1 0
BITMAP
30
30
30
00
FC
FC
00
30
30
30
ENDCHAR

STARTCHAR Delta
ENCODING 196
SWIDTH 360 0
DWIDTH 7 0
BBX 6 11 1 0
BITMAP
30
78
78
CC
CC
CC
CC
CC
CC
FC
FC
ENDCHAR

STARTCHAR gradient
ENCODING 197
SWIDTH 360 0
DWIDTH 7 0
BBX 6 11 1 0
BITMAP
FC
FC
CC
CC
CC
CC
CC
CC
78
78
30
ENDCHAR

STARTCHAR Phi
ENCODING 198
SWIDTH 360 0
DWIDTH 7 0
BBX 6 11 1 0
BITMAP
78
30
78
FC
B4
B4
B4
FC
78
30
78
ENDCHAR

STARTCHAR Gamma
ENCODING 199
SWIDTH 360 0
DWIDTH 7 0
BBX 6 11 1 0
BITMAP
FC
FC
6C
6C
60
60
60
60
60
F0
F0
ENDCHAR

STARTCHAR similar
ENCODING 200
SWIDTH 360 0
DWIDTH 7 0
BBX 6 3 1 4
BITMAP
64
FC
98
ENDCHAR

STARTCHAR approxequal
ENCODING 201
SWIDTH 360 0
DWIDTH 7 0
BBX 6 6 1 2
BITMAP
64
FC
98
00
FC
FC
ENDCHAR

STARTCHAR Theta
ENCODING 202
SWIDTH 360 0
DWIDTH 7 0
BBX 6 11 1 0
BITMAP
78
FC
CC
CC
FC
FC
CC
CC
CC
FC
78
ENDCHAR

STARTCHAR multiply
ENCODING 203
SWIDTH 360 0
DWIDTH 7 0
BBX 6 7 1 2
BITMAP
CC
CC
78
30
78
CC
CC
ENDCHAR

STARTCHAR Lambda
ENCODING 204
SWIDTH 360 0
DWIDTH 7 0
BBX 6 11 1 0
BITMAP
30
78
78
CC
CC
CC
CC
CC
CC
CC
CC
ENDCHAR

STARTCHAR arrowdblboth
ENCODING 205
SWIDTH 360 0
DWIDTH 7 0
BBX 7 9 0 1
BITMAP
28
44
7C
FE
C6
FE
7C
44
28
ENDCHAR

STARTCHAR arrowdblright
ENCODING 206
SWIDTH 360 0
DWIDTH 7 0
BBX 7 9 0 1
BITMAP
10
08
FC
FE
06
FE
FC
08
10
ENDCHAR

STARTCHAR equivalence
ENCODING 207
SWIDTH 360 0
DWIDTH 7 0
BBX 6 8 1 1
BITMAP
FC
FC
00
FC
FC
00
FC
FC
ENDCHAR

STARTCHAR Pi
ENCODING 208
SWIDTH 360 0
DWIDTH 7 0
BBX 6 11 1 0
BITMAP
FC
FC
CC
CC
CC
CC
CC
CC
CC
CC
CC
ENDCHAR

STARTCHAR Psi
ENCODING 209
SWIDTH 360 0
DWIDTH 7 0
BBX 6 11 1 0
BITMAP
78
30
B4
B4
B4
B4
B4
78
30
30
78
ENDCHAR

STARTCHAR Sigma
ENCODING 211
SWIDTH 360 0
DWIDTH 7 0
BBX 6 11 1 0
BITMAP
FC
FC
64
60
30
38
30
60
64
FC
FC
ENDCHAR

STARTCHAR radical
ENCODING 214
SWIDTH 360 0
DWIDTH 7 0
BBX 6 16 1 -2
BITMAP
1C
1C
18
18
18
18
D8
D8
D8
D8
D8
D8
70
70
30
30
ENDCHAR

STARTCHAR Omega
ENCODING 215
SWIDTH 360 0
DWIDTH 7 0
BBX 6 11 1 0
BITMAP
78
FC
CC
CC
CC
CC
CC
48
48
CC
CC
ENDCHAR

STARTCHAR Xi
ENCODING 216
SWIDTH 360 0
DWIDTH 7 0
BBX 6 11 1 0
BITMAP
FC
FC
CC
00
48
78
78
00
CC
FC
FC
ENDCHAR

STARTCHAR Upsilon1
ENCODING 217
SWIDTH 360 0
DWIDTH 7 0
BBX 6 11 1 0
BITMAP
CC
CC
CC
78
78
30
30
30
30
78
78
ENDCHAR

STARTCHAR propersubset
ENCODING 218
SWIDTH 360 0
DWIDTH 7 0
BBX 6 10 1 0
BITMAP
3C
7C
C0
C0
C0
C0
C0
C0
7C
3C
ENDCHAR

STARTCHAR propersuperset
ENCODING 219
SWIDTH 360 0
DWIDTH 7 0
BBX 6 10 1 0
BITMAP
F0
F8
0C
0C
0C
0C
0C
0C
F8
F0
ENDCHAR

STARTCHAR intersection
ENCODING 220
SWIDTH 360 0
DWIDTH 7 0
BBX 6 10 1 0
BITMAP
78
FC
CC
CC
CC
CC
CC
CC
CC
CC
ENDCHAR

STARTCHAR union
ENCODING 221
SWIDTH 360 0
DWIDTH 7 0
BBX 6 10 1 0
BITMAP
CC
CC
CC
CC
CC
CC
CC
CC
FC
78
ENDCHAR

STARTCHAR logicaland
ENCODING 222
SWIDTH 360 0
DWIDTH 7 0
BBX 7 10 0 0
BITMAP
10
10
38
38
28
6C
6C
6C
C6
C6
ENDCHAR

STARTCHAR logicalor
ENCODING 223
SWIDTH 360 0
DWIDTH 7 0
BBX 7 10 0 0
BITMAP
C6
C6
6C
6C
6C
28
38
38
10
10
ENDCHAR

STARTCHAR logicalnot
ENCODING 224
SWIDTH 360 0
DWIDTH 7 0
BBX 6 5 1 2
BITMAP
FC
FC
0C
0C
0C
ENDCHAR

STARTCHAR alpha
ENCODING 225
SWIDTH 360 0
DWIDTH 7 0
BBX 6 9 1 0
BITMAP
74
FC
D8
D8
D8
D8
D8
FC
6C
ENDCHAR

STARTCHAR beta
ENCODING 226
SWIDTH 360 0
DWIDTH 7 0
BBX 6 16 1 -4
BITMAP
38
7C
6C
6C
6C
78
CC
CC
CC
CC
FC
F8
C0
C0
C0
C0
ENDCHAR

STARTCHAR chi
ENCODING 227
SWIDTH 360 0
DWIDTH 7 0
BBX 7 12 0 -3
BITMAP
36
36
36
36
1C
1C
38
38
6C
6C
CC
CC
ENDCHAR

STARTCHAR delta
ENCODING 228
SWIDTH 360 0
DWIDTH 7 0
BBX 6 12 1 0
BITMAP
38
78
60
60
30
78
DC
CC
CC
CC
FC
78
ENDCHAR

STARTCHAR epsilon
ENCODING 229
SWIDTH 360 0
DWIDTH 7 0
BBX 6 9 1 0
BITMAP
3C
7C
C0
F8
F8
C0
C0
F8
78
ENDCHAR

STARTCHAR phi
ENCODING 230
SWIDTH 360 0
DWIDTH 7 0
BBX 7 16 0 -4
BITMAP
08
08
08
3C
7E
D6
D6
D6
D6
D6
FC
78
20
20
20
20
ENDCHAR

STARTCHAR gamma
ENCODING 231
SWIDTH 360 0
DWIDTH 7 0
BBX 6 12 1 -3
BITMAP
CC
CC
CC
6C
6C
68
78
30
30
60
60
60
ENDCHAR

STARTCHAR eta
ENCODING 232
SWIDTH 360 0
DWIDTH 7 0
BBX 6 12 1 -3
BITMAP
DC
FC
6C
6C
CC
CC
D8
D8
D8
18
18
18
ENDCHAR

STARTCHAR iota
ENCODING 233
SWIDTH 360 0
DWIDTH 7 0
BBX 4 9 2 0
BITMAP
E0
E0
60
60
C0
C0
C0
F0
F0
ENDCHAR

STARTCHAR theta
ENCODING 234
SWIDTH 360 0
DWIDTH 7 0
BBX 6 12 1 0
BITMAP
38
7C
6C
CC
CC
FC
FC
CC
CC
D8
F8
70
ENDCHAR

STARTCHAR kappa
ENCODING 235
SWIDTH 360 0
DWIDTH 7 0
BBX 6 9 1 0
BITMAP
6C
6C
68
78
70
F0
D8
D8
CC
ENDCHAR

STARTCHAR lambda
ENCODING 236
SWIDTH 360 0
DWIDTH 7 0
BBX 6 13 1 0
BITMAP
78
78
18
18
18
38
38
6C
6C
6C
CC
CC
CC
ENDCHAR

STARTCHAR nu
ENCODING 238
SWIDTH 360 0
DWIDTH 7 0
BBX 6 9 1 0
BITMAP
EC
EC
6C
6C
6C
78
78
70
60
ENDCHAR

STARTCHAR partialdiff
ENCODING 239
SWIDTH 360 0
DWIDTH 7 0
BBX 6 12 1 0
BITMAP
E0
F0
38
18
7C
FC
CC
CC
CC
CC
FC
78
ENDCHAR

STARTCHAR pi
ENCODING 240
SWIDTH 360 0
DWIDTH 7 0
BBX 6 9 1 0
BITMAP
FC
FC
6C
6C
6C
D8
D8
D8
D8
ENDCHAR

STARTCHAR psi
ENCODING 241
SWIDTH 360 0
DWIDTH 7 0
BBX 7 15 0 -4
BITMAP
10
10
10
D6
D6
D6
D6
D6
D6
FE
7C
20
20
20
20
ENDCHAR

STARTCHAR rho
ENCODING 242
SWIDTH 360 0
DWIDTH 7 0
BBX 6 12 1 -3
BITMAP
38
7C
CC
CC
CC
CC
CC
F8
F0
C0
C0
C0
ENDCHAR

STARTCHAR sigma
ENCODING 243
SWIDTH 360 0
DWIDTH 7 0
BBX 6 9 1 0
BITMAP
3C
7C
CC
CC
CC
CC
CC
F8
70
ENDCHAR

STARTCHAR tau
ENCODING 244
SWIDTH 360 0
DWIDTH 7 0
BBX 6 9 1 0
BITMAP
F8
F8
60
60
60
60
6C
7C
38
ENDCHAR

STARTCHAR florin
ENCODING 246
SWIDTH 360 0
DWIDTH 7 0
BBX 7 14 0 -3
BITMAP
0E
1E
18
18
3C
3C
18
18
18
30
30
30
F0
E0
ENDCHAR

STARTCHAR omega
ENCODING 247
SWIDTH 360 0
DWIDTH 7 0
BBX 7 9 0 0
BITMAP
D6
D6
D6
D6
D6
D6
D6
FE
6C
ENDCHAR

STARTCHAR xi
ENCODING 248
SWIDTH 360 0
DWIDTH 7 0
BBX 6 16 1 -4
BITMAP
FC
FC
30
60
60
70
70
C0
C0
C0
F8
7C
0C
0C
1C
18
ENDCHAR

STARTCHAR upsilon
ENCODING 249
SWIDTH 360 0
DWIDTH 7 0
BBX 6 9 1 0
BITMAP
CC
CC
CC
CC
CC
CC
D8
F8
70
ENDCHAR

STARTCHAR zeta
ENCODING 250
SWIDTH 360 0
DWIDTH 7 0
BBX 6 16 1 -4
BITMAP
FC
FC
18
30
60
60
C0
C0
C0
C0
F8
7C
0C
0C
0C
18
ENDCHAR

STARTCHAR arrowleft
ENCODING 251
SWIDTH 360 0
DWIDTH 7 0
BBX 7 8 0 1
BITMAP
10
30
60
FE
FE
60
30
10
ENDCHAR

STARTCHAR arrowup
ENCODING 252
SWIDTH 360 0
DWIDTH 7 0
BBX 6 14 1 -2
BITMAP
30
78
78
B4
B4
B4
30
30
30
30
30
30
30
30
ENDCHAR

STARTCHAR arrowright
ENCODING 253
SWIDTH 360 0
DWIDTH 7 0
BBX 7 8 0 1
BITMAP
10
18
0C
FE
FE
0C
18
10
ENDCHAR

STARTCHAR arrowdown
ENCODING 254
SWIDTH 360 0
DWIDTH 7 0
BBX 6 14 1 -2
BITMAP
30
30
30
30
30
30
30
30
B4
B4
B4
78
78
30
ENDCHAR
ENDFONT
